# xmcd
#
# Track frame offsets:
#	150
#	19524
#	30538
#	47159
#	67964
#	77500
#	94915
#	110623
#	125888
#	140009
#	152567
#	164794
#	176451
#	192672
#	207500
#	220572
#	240393
#
# Disc length: 3453 seconds
#
# Revision: 0
# Processed by: cddbd v1.5.2PL0 Copyright (c) Steve Scherf et al.
# Submitted via: dBpowerAMP V4.0
#
DISCID=ef0d7b11
DTITLE=Various Artist - No Good - Soulful Women With Attitude
DYEAR=2008
DGENRE=Soul
TTITLE0=Amy Winehouse - You Know I'm No Good
TTITLE1=Dusty Springfield - Son Of A Preacher Man
TTITLE2=Duffy - Mercy
TTITLE3=Gabin featuring Dee Dee Bridgewater - Into My Soul
TTITLE4=Candi Staton - I'd Rather Be An Old Man's Sweetheart
TTITLE5=Joss Stone - Super Duper Love
TTITLE6=Marlene Shaw - Let's Wade In The Water
TTITLE7=Lyn Collins - Think (About it)
TTITLE8=De-Phazz - Atomic Cocktail
TTITLE9=The Supremes - You Can't Hurry Love
TTITLE10=Martha Reeves and The Vandellas - Dancing In The Street
TTITLE11=Jean Knight - Mr. Big Stuff
TTITLE12=Corinne Bailey Rae - Put Your Records On
TTITLE13=Gloria Scott - That's What You Say (Everytime You're Near Me)
TTITLE14=Nina Simone - Feeling Good
TTITLE15=Melody Gardot - Worrisome Heart
TTITLE16=Jizelle And The Skool - My Summer (Let Me Ride On It)
EXTD=
EXTT0=
EXTT1=
EXTT2=
EXTT3=
EXTT4=
EXTT5=
EXTT6=
EXTT7=
EXTT8=
EXTT9=
EXTT10=
EXTT11=
EXTT12=
EXTT13=
EXTT14=
EXTT15=
EXTT16=
PLAYORDER=
